Coordinates
version=1
nRows=11
nColumns=40
inDegrees=yes

Units are S.I. units (second, meters, Newtons, ...)
If the header above contains a line with 'inDegrees', this indicates whether rotational values are in degrees (yes) or radians (no).

endheader
time	pelvis_tilt	pelvis_list	pelvis_rotation	pelvis_tx	pelvis_ty	pelvis_tz	hip_flexion_r	hip_adduction_r	hip_rotation_r	knee_angle_r	knee_angle_r_beta	ankle_angle_r	subtalar_angle_r	mtp_angle_r	hip_flexion_l	hip_adduction_l	hip_rotation_l	knee_angle_l	knee_angle_l_beta	ankle_angle_l	subtalar_angle_l	mtp_angle_l	lumbar_extension	lumbar_bending	lumbar_rotation	arm_flex_r	arm_add_r	arm_rot_r	elbow_flex_r	pro_sup_r	wrist_flex_r	wrist_dev_r	arm_flex_l	arm_add_l	arm_rot_l	elbow_flex_l	pro_sup_l	wrist_flex_l	wrist_dev_l
      1.25000000	      6.90144000	     -7.71816425	      0.34569847	     -0.25172508	      1.00082562	     -0.99785406	     47.43720487	      0.53244561	     -2.27129513	     20.88769231	      0.36455900	    -16.15129713	      0.00000000	      0.00000000	     -1.81637727	     -4.43873640	     -4.90764864	     12.12358709	      0.21159651	     -5.49748749	      0.00000000	      0.00000000	     -7.57185938	      4.44598993	      3.26324218	     89.26982350	    -10.51314139	     39.51029430	     19.76834694	     86.02768117	      0.00000000	      0.00000000	     89.82819831	    -25.91007834	     38.40656051	     32.72922781	     86.09555960	      0.00000000	      0.00000000
      1.25500000	      6.88327315	     -7.82792170	      0.35129548	     -0.25188756	      1.00077128	     -0.99787823	     47.46504800	      0.60043187	     -2.39139967	     20.90346234	      0.36483424	    -16.28294363	      0.00000000	      0.00000000	     -1.60866034	     -4.58883348	     -4.89916620	     12.47337753	      0.21770151	     -5.42674921	      0.00000000	      0.00000000	     -7.60800532	      4.55268714	      3.31066278	     89.28821660	    -10.71485969	     40.31224276	     19.94623517	     85.96351827	      0.00000000	      0.00000000	     89.83057230	    -25.94008994	     38.59945345	     32.85167313	     85.84179861	      0.00000000	      0.00000000
      1.26000000	      6.91721034	     -7.85502276	      0.31089552	     -0.25209929	      1.00083085	     -0.99782838	     47.41900488	      0.65572538	     -2.29567055	     20.89612355	      0.36470616	    -16.22516605	      0.00000000	      0.00000000	     -1.54566468	     -4.62851184	     -4.90868343	     12.64154758	      0.22063663	     -5.35119151	      0.00000000	      0.00000000	     -7.71372120	      4.55852714	      3.38414683	     89.27422082	    -10.62944727	     39.64199270	     19.82435020	     86.05457381	      0.00000000	      0.00000000	     89.83105668	    -25.82859855	     38.24318456	     32.73527670	     86.07586069	      0.00000000	      0.00000000
      1.26500000	      6.89316267	     -7.90589822	      0.25731046	     -0.25238920	      1.00071239	     -0.99771673	     47.46875216	      0.73907977	     -2.23012427	     20.91112894	      0.36496805	    -16.20440917	      0.00000000	      0.00000000	     -1.32615843	     -4.72278042	     -4.95165924	     13.00413419	      0.22696496	     -5.29864992	      0.00000000	      0.00000000	     -7.76918547	      4.60522450	      3.41102492	     89.31474304	    -10.56502171	     39.59273717	     19.78325916	     85.99057341	      0.00000000	      0.00000000	     89.83118049	    -25.90207755	     38.12733404	     32.79474222	     86.03397825	      0.00000000	      0.00000000
      1.27000000	      6.84685420	     -7.94130814	      0.19643075	     -0.25264081	      1.00061261	     -0.99749954	     47.51755346	      0.83493423	     -2.10468843	     20.87398643	      0.36431979	    -16.18935988	      0.00000000	      0.00000000	     -1.12640935	     -4.79407267	     -5.02772948	     13.27819525	      0.23174823	     -5.19079449	      0.00000000	      0.00000000	     -7.78072006	      4.59438778	      3.50693001	     89.30895917	    -10.60367420	     39.38770783	     19.78848650	     86.02175188	      0.00000000	      0.00000000	     89.83409403	    -25.87295238	     38.11594743	     32.81473353	     86.08528253	      0.00000000	      0.00000000
      1.27500000	      6.80986123	     -7.96821211	      0.13897847	     -0.25289478	      1.00045245	     -0.99734100	     47.57803342	      0.90797976	     -2.02885548	     20.85757552	      0.36403337	    -16.21214600	      0.00000000	      0.00000000	     -0.89245412	     -4.86362931	     -5.17478499	     13.66667619	      0.23852850	     -5.10063129	      0.00000000	      0.00000000	     -7.81444716	      4.60156590	      3.55103446	     89.32826366	    -10.54505505	     39.16202050	     19.77831550	     85.99526099	      0.00000000	      0.00000000	     89.83548152	    -25.92659799	     38.04771619	     32.89482040	     86.06680593	      0.00000000	      0.00000000
      1.28000000	      6.76829834	     -7.99372628	      0.13049409	     -0.25317330	      1.00033436	     -0.99733828	     47.59637830	      0.93602287	     -1.96089197	     20.75608162	      0.36226196	    -16.24949418	      0.00000000	      0.00000000	     -0.67549123	     -4.92112867	     -5.20560114	     13.95267269	      0.24352008	     -5.04510306	      0.00000000	      0.00000000	     -7.83309516	      4.61747994	      3.56485066	     89.33508308	    -10.56442980	     39.24528865	     19.80805471	     86.00250008	      0.00000000	      0.00000000	     89.83693050	    -25.93710371	     38.00037186	     32.92479209	     86.06185138	      0.00000000	      0.00000000
      1.28500000	      6.78601756	     -7.99478573	      0.11866097	     -0.25340062	      1.00022436	     -0.99730858	     47.65170338	      0.91963272	     -2.00011640	     20.85837313	      0.36404729	    -16.27737396	      0.00000000	      0.00000000	     -0.54686890	     -4.95740428	     -5.33715034	     14.22409139	      0.24825723	     -5.00603124	      0.00000000	      0.00000000	     -7.92931481	      4.62553072	      3.53184008	     89.38285268	    -10.46503842	     39.17736471	     19.77315240	     85.97195468	      0.00000000	      0.00000000	     89.83520905	    -26.07929983	     37.93929717	     33.00417587	     86.05234086	      0.00000000	      0.00000000
      1.29000000	      6.74921427	     -8.00760361	      0.14572438	     -0.25360101	      1.00008354	     -0.99737022	     47.67670123	      0.90735661	     -2.01752947	     20.81404331	      0.36327359	    -16.16948037	      0.00000000	      0.00000000	     -0.35483046	     -4.98481411	     -5.35957547	     14.47276942	      0.25259748	     -4.95732951	      0.00000000	      0.00000000	     -7.93573008	      4.62357957	      3.56468584	     89.37918338	    -10.52872055	     39.12751360	     19.76053261	     85.91533483	      0.00000000	      0.00000000	     89.83746324	    -25.98377638	     37.90708326	     32.98095229	     86.07401435	      0.00000000	      0.00000000
      1.29500000	      6.74120566	     -8.03034363	      0.14247195	     -0.25381785	      0.99996930	     -0.99731692	     47.70165937	      0.90885027	     -2.04164781	     20.81021807	      0.36320682	    -16.22859424	      0.00000000	      0.00000000	     -0.21545962	     -5.04408332	     -5.37259815	     14.70030743	      0.25656877	     -4.91450603	      0.00000000	      0.00000000	     -7.98695469	      4.63633928	      3.52559595	     89.38096640	    -10.45493057	     39.00940658	     19.75404781	     85.93397615	      0.00000000	      0.00000000	     89.83916105	    -26.09897246	     37.93489963	     33.06916130	     86.06677072	      0.00000000	      0.00000000
      1.30000000	      6.73451184	     -8.00476648	      0.08154151	     -0.25407956	      0.99985656	     -0.99720761	     47.74566581	      0.91875556	     -1.98091769	     20.83309917	      0.36360617	    -16.22353364	      0.00000000	      0.00000000	     -0.07822036	     -5.04804753	     -5.54373799	     14.92939280	      0.26056706	     -4.90153959	      0.00000000	      0.00000000	     -8.06301670	      4.57127470	      3.59150835	     89.38760515	    -10.48980579	     38.91635725	     19.85754060	     85.91388772	      0.00000000	      0.00000000	     89.84143951	    -26.10963611	     37.83605330	     33.11511457	     86.01813078	      0.00000000	      0.00000000
